<?xml version="1.0" encoding="us-ascii" standalone="no"?><svg xmlns="http://www.w3.org/2000/svg" xmlns:xlink="http://www.w3.org/1999/xlink" contentStyleType="text/css" height="952px" preserveAspectRatio="none" style="width:1836px;height:952px;background:#FFFFFF;" version="1.1" viewBox="0 0 1836 952" width="1836px" zoomAndPan="magnify"><defs/><g><text fill="#000000" font-family="sans-serif" font-size="14" font-weight="bold" lengthAdjust="spacing" textLength="305" x="767" y="27.9951">Lu&#7891;ng &#272;&#7863;t L&#7841;i M&#7853;t Kh&#7849;u (S&#7917; d&#7909;ng OTP)</text><rect fill="#FFFFFF" height="95.3984" style="stroke:#181818;stroke-width:1.0;" width="10" x="589.5" y="149.7266"/><rect fill="#FFFFFF" height="111.5313" style="stroke:#181818;stroke-width:1.0;" width="10" x="896.5" y="289.0625"/><rect fill="#FFFFFF" height="29.1328" style="stroke:#181818;stroke-width:1.0;" width="10" x="1282.5" y="318.1953"/><rect fill="#FFFFFF" height="29.1328" style="stroke:#181818;stroke-width:1.0;" width="10" x="1282.5" y="745.6641"/><rect fill="#FFFFFF" height="29.1328" style="stroke:#181818;stroke-width:1.0;" width="10" x="1409.5" y="473.6641"/><rect fill="#FFFFFF" height="29.1328" style="stroke:#181818;stroke-width:1.0;" width="10" x="1409.5" y="687.3984"/><rect fill="#FFFFFF" height="29.1328" style="stroke:#181818;stroke-width:1.0;" width="10" x="1569.5" y="629.1328"/><rect fill="none" height="648.2031" style="stroke:#000000;stroke-width:1.5;" width="1689" x="10" y="206.8594"/><rect fill="none" height="485.7344" style="stroke:#000000;stroke-width:1.5;" width="1669" x="20" y="362.3281"/><rect fill="none" height="323.2656" style="stroke:#000000;stroke-width:1.5;" width="1649" x="30" y="517.7969"/><line style="stroke:#181818;stroke-width:0.5;stroke-dasharray:5.0,5.0;" x1="62" x2="62" y1="118.5938" y2="872.0625"/><line style="stroke:#181818;stroke-width:0.5;stroke-dasharray:5.0,5.0;" x1="594" x2="594" y1="118.5938" y2="872.0625"/><line style="stroke:#181818;stroke-width:0.5;stroke-dasharray:5.0,5.0;" x1="901" x2="901" y1="118.5938" y2="872.0625"/><line style="stroke:#181818;stroke-width:0.5;stroke-dasharray:5.0,5.0;" x1="1287" x2="1287" y1="118.5938" y2="872.0625"/><line style="stroke:#181818;stroke-width:0.5;stroke-dasharray:5.0,5.0;" x1="1414" x2="1414" y1="118.5938" y2="872.0625"/><line style="stroke:#181818;stroke-width:0.5;stroke-dasharray:5.0,5.0;" x1="1574" x2="1574" y1="118.5938" y2="872.0625"/><line style="stroke:#181818;stroke-width:0.5;stroke-dasharray:5.0,5.0;" x1="1757" x2="1757" y1="118.5938" y2="872.0625"/><text fill="#000000" font-family="sans-serif" font-size="14" lengthAdjust="spacing" textLength="39" x="40" y="115.292">Client</text><ellipse cx="62.5" cy="50.7969" fill="#E2E2F0" rx="8" ry="8" style="stroke:#181818;stroke-width:0.5;"/><path d="M62.5,58.7969 L62.5,85.7969 M49.5,66.7969 L75.5,66.7969 M62.5,85.7969 L49.5,100.7969 M62.5,85.7969 L75.5,100.7969 " fill="none" style="stroke:#181818;stroke-width:0.5;"/><text fill="#000000" font-family="sans-serif" font-size="14" lengthAdjust="spacing" textLength="39" x="40" y="884.0576">Client</text><ellipse cx="62.5" cy="895.8594" fill="#E2E2F0" rx="8" ry="8" style="stroke:#181818;stroke-width:0.5;"/><path d="M62.5,903.8594 L62.5,930.8594 M49.5,911.8594 L75.5,911.8594 M62.5,930.8594 L49.5,945.8594 M62.5,930.8594 L75.5,945.8594 " fill="none" style="stroke:#181818;stroke-width:0.5;"/><rect fill="#E2E2F0" height="30.2969" rx="2.5" ry="2.5" style="stroke:#181818;stroke-width:0.5;" width="113" x="538" y="87.2969"/><text fill="#000000" font-family="sans-serif" font-size="14" lengthAdjust="spacing" textLength="99" x="545" y="107.292">AuthController</text><rect fill="#E2E2F0" height="30.2969" rx="2.5" ry="2.5" style="stroke:#181818;stroke-width:0.5;" width="113" x="538" y="871.0625"/><text fill="#000000" font-family="sans-serif" font-size="14" lengthAdjust="spacing" textLength="99" x="545" y="891.0576">AuthController</text><rect fill="#E2E2F0" height="30.2969" rx="2.5" ry="2.5" style="stroke:#181818;stroke-width:0.5;" width="99" x="852" y="87.2969"/><text fill="#000000" font-family="sans-serif" font-size="14" lengthAdjust="spacing" textLength="85" x="859" y="107.292">IAuthService</text><rect fill="#E2E2F0" height="30.2969" rx="2.5" ry="2.5" style="stroke:#181818;stroke-width:0.5;" width="99" x="852" y="871.0625"/><text fill="#000000" font-family="sans-serif" font-size="14" lengthAdjust="spacing" textLength="85" x="859" y="891.0576">IAuthService</text><rect fill="#E2E2F0" height="30.2969" rx="2.5" ry="2.5" style="stroke:#181818;stroke-width:0.5;" width="123" x="1226" y="87.2969"/><text fill="#000000" font-family="sans-serif" font-size="14" lengthAdjust="spacing" textLength="109" x="1233" y="107.292">IUserRepository</text><rect fill="#E2E2F0" height="30.2969" rx="2.5" ry="2.5" style="stroke:#181818;stroke-width:0.5;" width="123" x="1226" y="871.0625"/><text fill="#000000" font-family="sans-serif" font-size="14" lengthAdjust="spacing" textLength="109" x="1233" y="891.0576">IUserRepository</text><rect fill="#E2E2F0" height="30.2969" rx="2.5" ry="2.5" style="stroke:#181818;stroke-width:0.5;" width="111" x="1359" y="87.2969"/><text fill="#000000" font-family="sans-serif" font-size="14" lengthAdjust="spacing" textLength="97" x="1366" y="107.292">ITokenService</text><rect fill="#E2E2F0" height="30.2969" rx="2.5" ry="2.5" style="stroke:#181818;stroke-width:0.5;" width="111" x="1359" y="871.0625"/><text fill="#000000" font-family="sans-serif" font-size="14" lengthAdjust="spacing" textLength="97" x="1366" y="891.0576">ITokenService</text><rect fill="#E2E2F0" height="30.2969" rx="2.5" ry="2.5" style="stroke:#181818;stroke-width:0.5;" width="189" x="1480" y="87.2969"/><text fill="#000000" font-family="sans-serif" font-size="14" lengthAdjust="spacing" textLength="175" x="1487" y="107.292">IPasswordHasher&lt;User&gt;</text><rect fill="#E2E2F0" height="30.2969" rx="2.5" ry="2.5" style="stroke:#181818;stroke-width:0.5;" width="189" x="1480" y="871.0625"/><text fill="#000000" font-family="sans-serif" font-size="14" lengthAdjust="spacing" textLength="175" x="1487" y="891.0576">IPasswordHasher&lt;User&gt;</text><text fill="#000000" font-family="sans-serif" font-size="14" lengthAdjust="spacing" textLength="150" x="1679" y="115.292">ApplicationDBContext</text><path d="M1739,66.2969 C1739,56.2969 1757,56.2969 1757,56.2969 C1757,56.2969 1775,56.2969 1775,66.2969 L1775,92.2969 C1775,102.2969 1757,102.2969 1757,102.2969 C1757,102.2969 1739,102.2969 1739,92.2969 L1739,66.2969 " fill="#E2E2F0" style="stroke:#181818;stroke-width:1.5;"/><path d="M1739,66.2969 C1739,76.2969 1757,76.2969 1757,76.2969 C1757,76.2969 1775,76.2969 1775,66.2969 " fill="none" style="stroke:#181818;stroke-width:1.5;"/><text fill="#000000" font-family="sans-serif" font-size="14" lengthAdjust="spacing" textLength="150" x="1679" y="884.0576">ApplicationDBContext</text><path d="M1739,897.3594 C1739,887.3594 1757,887.3594 1757,887.3594 C1757,887.3594 1775,887.3594 1775,897.3594 L1775,923.3594 C1775,933.3594 1757,933.3594 1757,933.3594 C1757,933.3594 1739,933.3594 1739,923.3594 L1739,897.3594 " fill="#E2E2F0" style="stroke:#181818;stroke-width:1.5;"/><path d="M1739,897.3594 C1739,907.3594 1757,907.3594 1757,907.3594 C1757,907.3594 1775,907.3594 1775,897.3594 " fill="none" style="stroke:#181818;stroke-width:1.5;"/><rect fill="#FFFFFF" height="95.3984" style="stroke:#181818;stroke-width:1.0;" width="10" x="589.5" y="149.7266"/><rect fill="#FFFFFF" height="111.5313" style="stroke:#181818;stroke-width:1.0;" width="10" x="896.5" y="289.0625"/><rect fill="#FFFFFF" height="29.1328" style="stroke:#181818;stroke-width:1.0;" width="10" x="1282.5" y="318.1953"/><rect fill="#FFFFFF" height="29.1328" style="stroke:#181818;stroke-width:1.0;" width="10" x="1282.5" y="745.6641"/><rect fill="#FFFFFF" height="29.1328" style="stroke:#181818;stroke-width:1.0;" width="10" x="1409.5" y="473.6641"/><rect fill="#FFFFFF" height="29.1328" style="stroke:#181818;stroke-width:1.0;" width="10" x="1409.5" y="687.3984"/><rect fill="#FFFFFF" height="29.1328" style="stroke:#181818;stroke-width:1.0;" width="10" x="1569.5" y="629.1328"/><polygon fill="#181818" points="577.5,145.7266,587.5,149.7266,577.5,153.7266,581.5,149.7266" style="stroke:#181818;stroke-width:1.0;"/><line style="stroke:#181818;stroke-width:1.0;" x1="62.5" x2="583.5" y1="149.7266" y2="149.7266"/><text fill="#000000" font-family="sans-serif" font-size="13" lengthAdjust="spacing" textLength="508" x="69.5" y="144.6606">PATCH /api/auth/forgot_password (email, token, newPassword, repeatPassword)</text><line style="stroke:#181818;stroke-width:1.0;" x1="599.5" x2="641.5" y1="178.8594" y2="178.8594"/><line style="stroke:#181818;stroke-width:1.0;" x1="641.5" x2="641.5" y1="178.8594" y2="191.8594"/><line style="stroke:#181818;stroke-width:1.0;" x1="600.5" x2="641.5" y1="191.8594" y2="191.8594"/><polygon fill="#181818" points="610.5,187.8594,600.5,191.8594,610.5,195.8594,606.5,191.8594" style="stroke:#181818;stroke-width:1.0;"/><text fill="#000000" font-family="sans-serif" font-size="13" lengthAdjust="spacing" textLength="275" x="606.5" y="173.7935">Ki&#7875;m tra newPassword == repeatPassword</text><path d="M10,206.8594 L74,206.8594 L74,213.9922 L64,223.9922 L10,223.9922 L10,206.8594 " fill="#EEEEEE" style="stroke:#000000;stroke-width:1.5;"/><rect fill="none" height="648.2031" style="stroke:#000000;stroke-width:1.5;" width="1689" x="10" y="206.8594"/><text fill="#000000" font-family="sans-serif" font-size="13" font-weight="bold" lengthAdjust="spacing" textLength="19" x="25" y="219.9263">alt</text><text fill="#000000" font-family="sans-serif" font-size="11" font-weight="bold" lengthAdjust="spacing" textLength="147" x="89" y="219.0698">[M&#7853;t kh&#7849;u kh&#244;ng kh&#7899;p]</text><polygon fill="#181818" points="73.5,241.125,63.5,245.125,73.5,249.125,69.5,245.125" style="stroke:#181818;stroke-width:1.0;"/><line style="stroke:#181818;stroke-width:1.0;stroke-dasharray:2.0,2.0;" x1="67.5" x2="593.5" y1="245.125" y2="245.125"/><text fill="#000000" font-family="sans-serif" font-size="13" lengthAdjust="spacing" textLength="301" x="79.5" y="240.0591">400 Bad Request (M&#7853;t kh&#7849;u l&#7863;p l&#7841;i kh&#244;ng kh&#7899;p)</text><line style="stroke:#000000;stroke-width:1.0;stroke-dasharray:2.0,2.0;" x1="10" x2="1699" y1="254.125" y2="254.125"/><text fill="#000000" font-family="sans-serif" font-size="11" font-weight="bold" lengthAdjust="spacing" textLength="104" x="15" y="264.3354">[M&#7853;t kh&#7849;u kh&#7899;p]</text><polygon fill="#181818" points="884.5,285.0625,894.5,289.0625,884.5,293.0625,888.5,289.0625" style="stroke:#181818;stroke-width:1.0;"/><line style="stroke:#181818;stroke-width:1.0;" x1="594.5" x2="890.5" y1="289.0625" y2="289.0625"/><text fill="#000000" font-family="sans-serif" font-size="13" lengthAdjust="spacing" textLength="283" x="601.5" y="283.9966">ForgotPassword(token, email, newPassword)</text><polygon fill="#181818" points="1270.5,314.1953,1280.5,318.1953,1270.5,322.1953,1274.5,318.1953" style="stroke:#181818;stroke-width:1.0;"/><line style="stroke:#181818;stroke-width:1.0;" x1="906.5" x2="1276.5" y1="318.1953" y2="318.1953"/><text fill="#000000" font-family="sans-serif" font-size="13" lengthAdjust="spacing" textLength="157" x="913.5" y="313.1294">GetByEmailAsync(email)</text><polygon fill="#181818" points="917.5,343.3281,907.5,347.3281,917.5,351.3281,913.5,347.3281" style="stroke:#181818;stroke-width:1.0;"/><line style="stroke:#181818;stroke-width:1.0;stroke-dasharray:2.0,2.0;" x1="911.5" x2="1286.5" y1="347.3281" y2="347.3281"/><text fill="#000000" font-family="sans-serif" font-size="13" lengthAdjust="spacing" textLength="111" x="923.5" y="342.2622">user (n&#7871;u t&#7891;n t&#7841;i)</text><path d="M20,362.3281 L84,362.3281 L84,369.4609 L74,379.4609 L20,379.4609 L20,362.3281 " fill="#EEEEEE" style="stroke:#000000;stroke-width:1.5;"/><rect fill="none" height="485.7344" style="stroke:#000000;stroke-width:1.5;" width="1669" x="20" y="362.3281"/><text fill="#000000" font-family="sans-serif" font-size="13" font-weight="bold" lengthAdjust="spacing" textLength="19" x="35" y="375.395">alt</text><text fill="#000000" font-family="sans-serif" font-size="11" font-weight="bold" lengthAdjust="spacing" textLength="172" x="99" y="374.5386">[Ng&#432;&#7901;i d&#249;ng kh&#244;ng t&#7891;n t&#7841;i]</text><polygon fill="#181818" points="605.5,396.5938,595.5,400.5938,605.5,404.5938,601.5,400.5938" style="stroke:#181818;stroke-width:1.0;"/><line style="stroke:#181818;stroke-width:1.0;stroke-dasharray:2.0,2.0;" x1="599.5" x2="900.5" y1="400.5938" y2="400.5938"/><text fill="#000000" font-family="sans-serif" font-size="13" lengthAdjust="spacing" textLength="247" x="611.5" y="395.5278">Exception("Ng&#432;&#7901;i d&#249;ng kh&#244;ng t&#7891;n t&#7841;i.")</text><polygon fill="#181818" points="73.5,425.7266,63.5,429.7266,73.5,433.7266,69.5,429.7266" style="stroke:#181818;stroke-width:1.0;"/><line style="stroke:#181818;stroke-width:1.0;stroke-dasharray:2.0,2.0;" x1="67.5" x2="593.5" y1="429.7266" y2="429.7266"/><text fill="#000000" font-family="sans-serif" font-size="13" lengthAdjust="spacing" textLength="266" x="79.5" y="424.6606">400 Bad Request (&#272;&#7893;i m&#7853;t kh&#7849;u th&#7845;t b&#7841;i.)</text><line style="stroke:#000000;stroke-width:1.0;stroke-dasharray:2.0,2.0;" x1="20" x2="1689" y1="438.7266" y2="438.7266"/><text fill="#000000" font-family="sans-serif" font-size="11" font-weight="bold" lengthAdjust="spacing" textLength="129" x="25" y="448.937">[Ng&#432;&#7901;i d&#249;ng t&#7891;n t&#7841;i]</text><polygon fill="#181818" points="1397.5,469.6641,1407.5,473.6641,1397.5,477.6641,1401.5,473.6641" style="stroke:#181818;stroke-width:1.0;"/><line style="stroke:#181818;stroke-width:1.0;" x1="901.5" x2="1403.5" y1="473.6641" y2="473.6641"/><text fill="#000000" font-family="sans-serif" font-size="13" lengthAdjust="spacing" textLength="209" x="908.5" y="468.5981">VerifyTokenAsync(user.Id, token)</text><polygon fill="#181818" points="912.5,498.7969,902.5,502.7969,912.5,506.7969,908.5,502.7969" style="stroke:#181818;stroke-width:1.0;"/><line style="stroke:#181818;stroke-width:1.0;stroke-dasharray:2.0,2.0;" x1="906.5" x2="1413.5" y1="502.7969" y2="502.7969"/><text fill="#000000" font-family="sans-serif" font-size="13" lengthAdjust="spacing" textLength="144" x="918.5" y="497.731">isTokenValid (boolean)</text><path d="M30,517.7969 L94,517.7969 L94,524.9297 L84,534.9297 L30,534.9297 L30,517.7969 " fill="#EEEEEE" style="stroke:#000000;stroke-width:1.5;"/><rect fill="none" height="323.2656" style="stroke:#000000;stroke-width:1.5;" width="1649" x="30" y="517.7969"/><text fill="#000000" font-family="sans-serif" font-size="13" font-weight="bold" lengthAdjust="spacing" textLength="19" x="45" y="530.8638">alt</text><text fill="#000000" font-family="sans-serif" font-size="11" font-weight="bold" lengthAdjust="spacing" textLength="136" x="109" y="530.0073">[Token kh&#244;ng h&#7907;p l&#7879;]</text><polygon fill="#181818" points="605.5,552.0625,595.5,556.0625,605.5,560.0625,601.5,556.0625" style="stroke:#181818;stroke-width:1.0;"/><line style="stroke:#181818;stroke-width:1.0;stroke-dasharray:2.0,2.0;" x1="599.5" x2="900.5" y1="556.0625" y2="556.0625"/><text fill="#000000" font-family="sans-serif" font-size="13" lengthAdjust="spacing" textLength="210" x="611.5" y="550.9966">Exception("Token kh&#244;ng h&#7907;p l&#7879;.")</text><polygon fill="#181818" points="73.5,581.1953,63.5,585.1953,73.5,589.1953,69.5,585.1953" style="stroke:#181818;stroke-width:1.0;"/><line style="stroke:#181818;stroke-width:1.0;stroke-dasharray:2.0,2.0;" x1="67.5" x2="593.5" y1="585.1953" y2="585.1953"/><text fill="#000000" font-family="sans-serif" font-size="13" lengthAdjust="spacing" textLength="266" x="79.5" y="580.1294">400 Bad Request (&#272;&#7893;i m&#7853;t kh&#7849;u th&#7845;t b&#7841;i.)</text><line style="stroke:#000000;stroke-width:1.0;stroke-dasharray:2.0,2.0;" x1="30" x2="1679" y1="594.1953" y2="594.1953"/><text fill="#000000" font-family="sans-serif" font-size="11" font-weight="bold" lengthAdjust="spacing" textLength="93" x="35" y="604.4058">[Token h&#7907;p l&#7879;]</text><polygon fill="#181818" points="1557.5,625.1328,1567.5,629.1328,1557.5,633.1328,1561.5,629.1328" style="stroke:#181818;stroke-width:1.0;"/><line style="stroke:#181818;stroke-width:1.0;" x1="901.5" x2="1563.5" y1="629.1328" y2="629.1328"/><text fill="#000000" font-family="sans-serif" font-size="13" lengthAdjust="spacing" textLength="224" x="908.5" y="624.0669">HashPassword(user, newPassword)</text><polygon fill="#181818" points="912.5,654.2656,902.5,658.2656,912.5,662.2656,908.5,658.2656" style="stroke:#181818;stroke-width:1.0;"/><line style="stroke:#181818;stroke-width:1.0;stroke-dasharray:2.0,2.0;" x1="906.5" x2="1573.5" y1="658.2656" y2="658.2656"/><text fill="#000000" font-family="sans-serif" font-size="13" lengthAdjust="spacing" textLength="107" x="918.5" y="653.1997">hashedPassword</text><polygon fill="#181818" points="1397.5,683.3984,1407.5,687.3984,1397.5,691.3984,1401.5,687.3984" style="stroke:#181818;stroke-width:1.0;"/><line style="stroke:#181818;stroke-width:1.0;" x1="901.5" x2="1403.5" y1="687.3984" y2="687.3984"/><text fill="#000000" font-family="sans-serif" font-size="13" lengthAdjust="spacing" textLength="169" x="908.5" y="682.3325">RevokeAllUserOTP(user.Id)</text><polygon fill="#181818" points="912.5,712.5313,902.5,716.5313,912.5,720.5313,908.5,716.5313" style="stroke:#181818;stroke-width:1.0;"/><line style="stroke:#181818;stroke-width:1.0;stroke-dasharray:2.0,2.0;" x1="906.5" x2="1413.5" y1="716.5313" y2="716.5313"/><text fill="#000000" font-family="sans-serif" font-size="13" lengthAdjust="spacing" textLength="245" x="918.5" y="711.4653">th&#224;nh c&#244;ng (v&#244; hi&#7879;u h&#243;a OTP &#273;&#227; d&#249;ng)</text><polygon fill="#181818" points="1270.5,741.6641,1280.5,745.6641,1270.5,749.6641,1274.5,745.6641" style="stroke:#181818;stroke-width:1.0;"/><line style="stroke:#181818;stroke-width:1.0;" x1="901.5" x2="1276.5" y1="745.6641" y2="745.6641"/><text fill="#000000" font-family="sans-serif" font-size="13" lengthAdjust="spacing" textLength="362" x="908.5" y="740.5981">Update(user with new password) &amp; SaveChangesAsync()</text><polygon fill="#181818" points="912.5,770.7969,902.5,774.7969,912.5,778.7969,908.5,774.7969" style="stroke:#181818;stroke-width:1.0;"/><line style="stroke:#181818;stroke-width:1.0;stroke-dasharray:2.0,2.0;" x1="906.5" x2="1286.5" y1="774.7969" y2="774.7969"/><text fill="#000000" font-family="sans-serif" font-size="13" lengthAdjust="spacing" textLength="72" x="918.5" y="769.731">th&#224;nh c&#244;ng</text><polygon fill="#181818" points="605.5,799.9297,595.5,803.9297,605.5,807.9297,601.5,803.9297" style="stroke:#181818;stroke-width:1.0;"/><line style="stroke:#181818;stroke-width:1.0;stroke-dasharray:2.0,2.0;" x1="599.5" x2="900.5" y1="803.9297" y2="803.9297"/><text fill="#000000" font-family="sans-serif" font-size="13" lengthAdjust="spacing" textLength="26" x="611.5" y="798.8638">true</text><polygon fill="#181818" points="73.5,829.0625,63.5,833.0625,73.5,837.0625,69.5,833.0625" style="stroke:#181818;stroke-width:1.0;"/><line style="stroke:#181818;stroke-width:1.0;stroke-dasharray:2.0,2.0;" x1="67.5" x2="593.5" y1="833.0625" y2="833.0625"/><text fill="#000000" font-family="sans-serif" font-size="13" lengthAdjust="spacing" textLength="226" x="79.5" y="827.9966">200 OK (&#272;&#7893;i m&#7853;t kh&#7849;u th&#224;nh c&#244;ng.)</text><!--SRC=[jLPDRzD04BtxLunoe8bKsWfnYcYaD1HQjT2gNrUqZQVnggvjxBNR7167Na684q8ggdhWK8549KHyu92A_-5_mkuwThnRkqaaY9HOwzcycNdpPdOPPJR2PfZ47vmUtBvB1ZyPR2Q3BnHU98Dh1XjMClWQGdqtYQ_1JE8hlcrhRxjX6AJBN1ywDaM76Hxn6UrIZpWCsY6pEgx3VDUsqLTCwyAsYtv4kwWQzWFqTz1p0yfH-wfjppr6f-nVjVLj4WIdhc-kaS12_ub0QTM01A1P39CmSaW2XBRdsRHB67MTfoiYJ3nZXf6c0GzRMlHDs6xlTTPWaNXqaN3Juf7hzrpsoXl1GnrF2BNdWOaWvy71qyppFFZe8M7PkY4een5Xg5DagEkoC3Pe4hyz0UQJeWjONjQS6CHcez8TfwKxjeOtl6Xy5N_o3E0VtHjtb-RVXCTBIx12JDZ1ro463EeAbCtbuObVBWy5jY5nJQnA46tEl1PLPJWjHIPDU2OPpnAiZuWUqLuW8mqY3q7HcZGLtqWtgkYQy1pPIdzL0BU3ljDDIwl3QagLmEexoQYQGyWtGDr91hz3OABP-2zdyGvlEdhgcvVqPU_FzoJ-JC4S_fAqI_OBK7BdtInBfBHwraLFwBzUcuYwK6lamCKmYznczZczaeV9u1i3pDn1DBpW0au6bn0byHkXiv7CvdACMQJ9frNyaS99KLQCFwwOyCnZBmrTKwQmIdLgL4ncjgKEfYOSe4-F-l9TAXzHz8LrSpGRnj6CQLGcM-wc-BP4IpIG6mw8JVduENHT6ubJNYO5V-oVwqbQieBpNhmKVHsVvtjcLL85Nb4_qsZeN-deFsffifvoJQMaJCLkIp-ncY2U-TGJMYgPTdSbfPrxYaVLLY8jInZC_2ofgfpcu_wqr2RPmOYlsxOj1Xs_I6HDKfLEQOTCqoNC6buu5dIb8ElHy0OiVeIUXs0DVn1nXO7RzyFBjDkhDLhUG5CT9liUltEWp0zEARD4yI2xDZJW0UoI23iMSNeOfFEYYeEI4oUFOkB9K-IXCisoKsVgAS3y46TkydkQyn5lpgsDgfuSPpDxJpgffCLJVFy2]--></g></svg>