<?xml version="1.0" encoding="us-ascii" standalone="no"?><svg xmlns="http://www.w3.org/2000/svg" xmlns:xlink="http://www.w3.org/1999/xlink" contentStyleType="text/css" height="640px" preserveAspectRatio="none" style="width:847px;height:640px;background:#FFFFFF;" version="1.1" viewBox="0 0 847 640" width="847px" zoomAndPan="magnify"><defs/><g><text fill="#000000" font-family="sans-serif" font-size="14" font-weight="bold" lengthAdjust="spacing" textLength="266" x="289.75" y="27.9951">Lu&#7891;ng T&#7921; H&#7841; Role Khi G&#243;i H&#7871;t H&#7841;n</text><rect fill="#FFFFFF" height="466.9922" style="stroke:#181818;stroke-width:1.0;" width="10" x="110" y="112.7266"/><rect fill="#FFFFFF" height="29.1328" style="stroke:#181818;stroke-width:1.0;" width="10" x="385" y="146.8594"/><rect fill="#FFFFFF" height="29.1328" style="stroke:#181818;stroke-width:1.0;" width="10" x="385" y="295.5234"/><rect fill="#FFFFFF" height="29.1328" style="stroke:#181818;stroke-width:1.0;" width="10" x="565.5" y="436.1875"/><rect fill="#FFFFFF" height="29.1328" style="stroke:#181818;stroke-width:1.0;" width="10" x="719" y="353.7891"/><rect fill="#FFFFFF" height="29.1328" style="stroke:#181818;stroke-width:1.0;" width="10" x="719" y="494.4531"/><rect fill="none" height="354.5938" style="stroke:#000000;stroke-width:1.5;" width="805.5" x="10" y="190.9922"/><rect fill="none" height="323.4609" style="stroke:#000000;stroke-width:1.5;" width="785.5" x="20" y="215.125"/><rect fill="none" height="133.6641" style="stroke:#000000;stroke-width:1.5;" width="765.5" x="30" y="397.9219"/><line style="stroke:#181818;stroke-width:0.5;stroke-dasharray:5.0,5.0;" x1="115" x2="115" y1="73.5938" y2="604.7188"/><line style="stroke:#181818;stroke-width:0.5;stroke-dasharray:5.0,5.0;" x1="389.5" x2="389.5" y1="73.5938" y2="604.7188"/><line style="stroke:#181818;stroke-width:0.5;stroke-dasharray:5.0,5.0;" x1="570.5" x2="570.5" y1="73.5938" y2="604.7188"/><line style="stroke:#181818;stroke-width:0.5;stroke-dasharray:5.0,5.0;" x1="723.5" x2="723.5" y1="73.5938" y2="604.7188"/><line style="stroke:#181818;stroke-width:0.5;stroke-dasharray:5.0,5.0;" x1="818.5" x2="818.5" y1="73.5938" y2="604.7188"/><rect fill="#E2E2F0" height="30.2969" rx="2.5" ry="2.5" style="stroke:#181818;stroke-width:0.5;" width="150" x="40" y="42.2969"/><text fill="#000000" font-family="sans-serif" font-size="14" lengthAdjust="spacing" textLength="136" x="47" y="62.292">SubscriptionService</text><rect fill="#E2E2F0" height="30.2969" rx="2.5" ry="2.5" style="stroke:#181818;stroke-width:0.5;" width="150" x="40" y="603.7188"/><text fill="#000000" font-family="sans-serif" font-size="14" lengthAdjust="spacing" textLength="136" x="47" y="623.7139">SubscriptionService</text><rect fill="#E2E2F0" height="30.2969" rx="2.5" ry="2.5" style="stroke:#181818;stroke-width:0.5;" width="177" x="301.5" y="42.2969"/><text fill="#000000" font-family="sans-serif" font-size="14" lengthAdjust="spacing" textLength="163" x="308.5" y="62.292">ISubscriptionRepository</text><rect fill="#E2E2F0" height="30.2969" rx="2.5" ry="2.5" style="stroke:#181818;stroke-width:0.5;" width="177" x="301.5" y="603.7188"/><text fill="#000000" font-family="sans-serif" font-size="14" lengthAdjust="spacing" textLength="163" x="308.5" y="623.7139">ISubscriptionRepository</text><rect fill="#E2E2F0" height="30.2969" rx="2.5" ry="2.5" style="stroke:#181818;stroke-width:0.5;" width="164" x="488.5" y="42.2969"/><text fill="#000000" font-family="sans-serif" font-size="14" lengthAdjust="spacing" textLength="150" x="495.5" y="62.292">ApplicationDBContext</text><rect fill="#E2E2F0" height="30.2969" rx="2.5" ry="2.5" style="stroke:#181818;stroke-width:0.5;" width="164" x="488.5" y="603.7188"/><text fill="#000000" font-family="sans-serif" font-size="14" lengthAdjust="spacing" textLength="150" x="495.5" y="623.7139">ApplicationDBContext</text><rect fill="#E2E2F0" height="30.2969" rx="2.5" ry="2.5" style="stroke:#181818;stroke-width:0.5;" width="123" x="662.5" y="42.2969"/><text fill="#000000" font-family="sans-serif" font-size="14" lengthAdjust="spacing" textLength="109" x="669.5" y="62.292">IUserRepository</text><rect fill="#E2E2F0" height="30.2969" rx="2.5" ry="2.5" style="stroke:#181818;stroke-width:0.5;" width="123" x="662.5" y="603.7188"/><text fill="#000000" font-family="sans-serif" font-size="14" lengthAdjust="spacing" textLength="109" x="669.5" y="623.7139">IUserRepository</text><rect fill="#E2E2F0" height="30.2969" rx="2.5" ry="2.5" style="stroke:#181818;stroke-width:0.5;" width="46" x="795.5" y="42.2969"/><text fill="#000000" font-family="sans-serif" font-size="14" lengthAdjust="spacing" textLength="32" x="802.5" y="62.292">User</text><rect fill="#E2E2F0" height="30.2969" rx="2.5" ry="2.5" style="stroke:#181818;stroke-width:0.5;" width="46" x="795.5" y="603.7188"/><text fill="#000000" font-family="sans-serif" font-size="14" lengthAdjust="spacing" textLength="32" x="802.5" y="623.7139">User</text><rect fill="#FFFFFF" height="466.9922" style="stroke:#181818;stroke-width:1.0;" width="10" x="110" y="112.7266"/><rect fill="#FFFFFF" height="29.1328" style="stroke:#181818;stroke-width:1.0;" width="10" x="385" y="146.8594"/><rect fill="#FFFFFF" height="29.1328" style="stroke:#181818;stroke-width:1.0;" width="10" x="385" y="295.5234"/><rect fill="#FFFFFF" height="29.1328" style="stroke:#181818;stroke-width:1.0;" width="10" x="565.5" y="436.1875"/><rect fill="#FFFFFF" height="29.1328" style="stroke:#181818;stroke-width:1.0;" width="10" x="719" y="353.7891"/><rect fill="#FFFFFF" height="29.1328" style="stroke:#181818;stroke-width:1.0;" width="10" x="719" y="494.4531"/><line style="stroke:#181818;stroke-width:1.0;" x1="115" x2="162" y1="99.7266" y2="99.7266"/><line style="stroke:#181818;stroke-width:1.0;" x1="162" x2="162" y1="99.7266" y2="112.7266"/><line style="stroke:#181818;stroke-width:1.0;" x1="121" x2="162" y1="112.7266" y2="112.7266"/><polygon fill="#181818" points="131,108.7266,121,112.7266,131,116.7266,127,112.7266" style="stroke:#181818;stroke-width:1.0;"/><text fill="#000000" font-family="sans-serif" font-size="13" lengthAdjust="spacing" textLength="226" x="127" y="94.6606">HandleExpiredSubscriptionsAsync()</text><polygon fill="#181818" points="373,142.8594,383,146.8594,373,150.8594,377,146.8594" style="stroke:#181818;stroke-width:1.0;"/><line style="stroke:#181818;stroke-width:1.0;" x1="120" x2="379" y1="146.8594" y2="146.8594"/><text fill="#000000" font-family="sans-serif" font-size="13" lengthAdjust="spacing" textLength="86" x="127" y="141.7935">GetAllAsync()</text><polygon fill="#181818" points="131,171.9922,121,175.9922,131,179.9922,127,175.9922" style="stroke:#181818;stroke-width:1.0;"/><line style="stroke:#181818;stroke-width:1.0;stroke-dasharray:2.0,2.0;" x1="125" x2="389" y1="175.9922" y2="175.9922"/><text fill="#000000" font-family="sans-serif" font-size="13" lengthAdjust="spacing" textLength="84" x="137" y="170.9263">subscriptions</text><path d="M10,190.9922 L87,190.9922 L87,198.125 L77,208.125 L10,208.125 L10,190.9922 " fill="#EEEEEE" style="stroke:#000000;stroke-width:1.5;"/><rect fill="none" height="354.5938" style="stroke:#000000;stroke-width:1.5;" width="805.5" x="10" y="190.9922"/><text fill="#000000" font-family="sans-serif" font-size="13" font-weight="bold" lengthAdjust="spacing" textLength="32" x="25" y="204.0591">loop</text><text fill="#000000" font-family="sans-serif" font-size="11" font-weight="bold" lengthAdjust="spacing" textLength="252" x="102" y="203.2026">[for each subscription in subscriptions]</text><path d="M20,215.125 L84,215.125 L84,222.2578 L74,232.2578 L20,232.2578 L20,215.125 " fill="#EEEEEE" style="stroke:#000000;stroke-width:1.5;"/><rect fill="none" height="323.4609" style="stroke:#000000;stroke-width:1.5;" width="785.5" x="20" y="215.125"/><text fill="#000000" font-family="sans-serif" font-size="13" font-weight="bold" lengthAdjust="spacing" textLength="19" x="35" y="228.1919">alt</text><text fill="#000000" font-family="sans-serif" font-size="11" font-weight="bold" lengthAdjust="spacing" textLength="398" x="99" y="227.3354">[subscription.Status == Active &amp;&amp; subscription.EndsAt &lt; now]</text><line style="stroke:#181818;stroke-width:1.0;" x1="120" x2="162" y1="253.3906" y2="253.3906"/><line style="stroke:#181818;stroke-width:1.0;" x1="162" x2="162" y1="253.3906" y2="266.3906"/><line style="stroke:#181818;stroke-width:1.0;" x1="121" x2="162" y1="266.3906" y2="266.3906"/><polygon fill="#181818" points="131,262.3906,121,266.3906,131,270.3906,127,266.3906" style="stroke:#181818;stroke-width:1.0;"/><text fill="#000000" font-family="sans-serif" font-size="13" lengthAdjust="spacing" textLength="251" x="127" y="248.3247">C&#7853;p nh&#7853;t subscription.Status = Expired</text><polygon fill="#181818" points="373,291.5234,383,295.5234,373,299.5234,377,295.5234" style="stroke:#181818;stroke-width:1.0;"/><line style="stroke:#181818;stroke-width:1.0;" x1="120" x2="379" y1="295.5234" y2="295.5234"/><text fill="#000000" font-family="sans-serif" font-size="13" lengthAdjust="spacing" textLength="172" x="127" y="290.4575">UpdateAsync(subscription)</text><polygon fill="#181818" points="131,320.6563,121,324.6563,131,328.6563,127,324.6563" style="stroke:#181818;stroke-width:1.0;"/><line style="stroke:#181818;stroke-width:1.0;stroke-dasharray:2.0,2.0;" x1="125" x2="389" y1="324.6563" y2="324.6563"/><text fill="#000000" font-family="sans-serif" font-size="13" lengthAdjust="spacing" textLength="51" x="137" y="319.5903">success</text><polygon fill="#181818" points="707,349.7891,717,353.7891,707,357.7891,711,353.7891" style="stroke:#181818;stroke-width:1.0;"/><line style="stroke:#181818;stroke-width:1.0;" x1="120" x2="713" y1="353.7891" y2="353.7891"/><text fill="#000000" font-family="sans-serif" font-size="13" lengthAdjust="spacing" textLength="220" x="127" y="348.7231">GetByIdAsync(subscription.UserId)</text><polygon fill="#181818" points="131,378.9219,121,382.9219,131,386.9219,127,382.9219" style="stroke:#181818;stroke-width:1.0;"/><line style="stroke:#181818;stroke-width:1.0;stroke-dasharray:2.0,2.0;" x1="125" x2="723" y1="382.9219" y2="382.9219"/><text fill="#000000" font-family="sans-serif" font-size="13" lengthAdjust="spacing" textLength="28" x="137" y="377.856">user</text><path d="M30,397.9219 L94,397.9219 L94,405.0547 L84,415.0547 L30,415.0547 L30,397.9219 " fill="#EEEEEE" style="stroke:#000000;stroke-width:1.5;"/><rect fill="none" height="133.6641" style="stroke:#000000;stroke-width:1.5;" width="765.5" x="30" y="397.9219"/><text fill="#000000" font-family="sans-serif" font-size="13" font-weight="bold" lengthAdjust="spacing" textLength="19" x="45" y="410.9888">alt</text><text fill="#000000" font-family="sans-serif" font-size="11" font-weight="bold" lengthAdjust="spacing" textLength="84" x="109" y="410.1323">[user != null]</text><polygon fill="#181818" points="553.5,432.1875,563.5,436.1875,553.5,440.1875,557.5,436.1875" style="stroke:#181818;stroke-width:1.0;"/><line style="stroke:#181818;stroke-width:1.0;" x1="120" x2="559.5" y1="436.1875" y2="436.1875"/><text fill="#000000" font-family="sans-serif" font-size="13" lengthAdjust="spacing" textLength="163" x="127" y="431.1216">Update user.Role = Basic</text><polygon fill="#181818" points="131,461.3203,121,465.3203,131,469.3203,127,465.3203" style="stroke:#181818;stroke-width:1.0;"/><line style="stroke:#181818;stroke-width:1.0;stroke-dasharray:2.0,2.0;" x1="125" x2="569.5" y1="465.3203" y2="465.3203"/><text fill="#000000" font-family="sans-serif" font-size="13" lengthAdjust="spacing" textLength="51" x="137" y="460.2544">success</text><polygon fill="#181818" points="707,490.4531,717,494.4531,707,498.4531,711,494.4531" style="stroke:#181818;stroke-width:1.0;"/><line style="stroke:#181818;stroke-width:1.0;" x1="120" x2="713" y1="494.4531" y2="494.4531"/><text fill="#000000" font-family="sans-serif" font-size="13" lengthAdjust="spacing" textLength="136" x="127" y="489.3872">SaveChangesAsync()</text><polygon fill="#181818" points="131,519.5859,121,523.5859,131,527.5859,127,523.5859" style="stroke:#181818;stroke-width:1.0;"/><line style="stroke:#181818;stroke-width:1.0;stroke-dasharray:2.0,2.0;" x1="125" x2="723" y1="523.5859" y2="523.5859"/><text fill="#000000" font-family="sans-serif" font-size="13" lengthAdjust="spacing" textLength="51" x="137" y="518.52">success</text><line style="stroke:#181818;stroke-width:1.0;stroke-dasharray:2.0,2.0;" x1="120" x2="162" y1="578.7188" y2="578.7188"/><line style="stroke:#181818;stroke-width:1.0;stroke-dasharray:2.0,2.0;" x1="162" x2="162" y1="578.7188" y2="591.7188"/><line style="stroke:#181818;stroke-width:1.0;stroke-dasharray:2.0,2.0;" x1="115" x2="162" y1="591.7188" y2="591.7188"/><polygon fill="#181818" points="125,587.7188,115,591.7188,125,595.7188,121,591.7188" style="stroke:#181818;stroke-width:1.0;"/><text fill="#000000" font-family="sans-serif" font-size="13" lengthAdjust="spacing" textLength="75" x="127" y="573.6528">Ho&#224;n th&#224;nh</text><!--SRC=[dLH1JiCm4Bpx5SkbeWVw04IHqbAL2awKFi0ufh5asLQyAVGTV00Um05nWmC7NjAV40SQujOcBPOIIxlZMO_7NXGeELmMg_S7DOVhrViBdA_Udk1Ab-6BJC3uyrMuq0TM2KM8eJaA9WnL2DFYnh9S61HQJNc-48nx-KaJSCMDjW9rllGmYJ5ICEeGPuEXLiZlqIUPMPv75hiK8O5jmD5fQ7V7S4vLAldeteYSfqs4JUnIiSCkeGp5WY8FgelLYYWzXZ77HCejxjZ9a4W2ZcA2R5C3INbx2QcrWLkTGudDlFKWr0OVb8DAzAAzAL8iBFJxaBXY73eT7p1IgKqGJa3fkuh2ZNrS6gxUdWseh9mYjU77GjB67tLcPjBocBwTQPRereojHxa6_iCqnhYrDS4kjhNfz9z9TVC6oqcwBR3da9Cqf7FZgTNw_7XSL-7UOqZK1l5lwV9kkKLmq0TLI5ad_b0QwXXhEokoNjM- -Z2WLZ2FiTvGiEiqaI70xdvko0zMsqNgbgbJkk33ZAevh_jLK5_CoRtSR54Lgy5LIjQp-y8zCzgWzUUZ0ipAVzPiPw5k_0K0]--></g></svg>