<?xml version="1.0" encoding="us-ascii" standalone="no"?><svg xmlns="http://www.w3.org/2000/svg" xmlns:xlink="http://www.w3.org/1999/xlink" contentStyleType="text/css" height="654px" preserveAspectRatio="none" style="width:2327px;height:654px;background:#FFFFFF;" version="1.1" viewBox="0 0 2327 654" width="2327px" zoomAndPan="magnify"><defs/><g><text fill="#000000" font-family="sans-serif" font-size="14" font-weight="bold" lengthAdjust="spacing" textLength="444" x="934.5" y="22.9951">S&#417; &#272;&#7891; L&#7899;p Ch&#7913;c N&#259;ng Gi&#225;m s&#225;t &amp; B&#225;o c&#225;o (FR8.1, FR8.2)</text><!--cluster Presentation Layer--><g id="cluster_Presentation Layer"><path d="M1770.5,51.2969 L1921.5,51.2969 A3.75,3.75 0 0 1 1924,53.7969 L1931,73.5938 L2317.5,73.5938 A2.5,2.5 0 0 1 2320,76.0938 L2320,212.7969 A2.5,2.5 0 0 1 2317.5,215.2969 L1770.5,215.2969 A2.5,2.5 0 0 1 1768,212.7969 L1768,53.7969 A2.5,2.5 0 0 1 1770.5,51.2969 " fill="none" style="stroke:#000000;stroke-width:1.5;"/><line style="stroke:#000000;stroke-width:1.5;" x1="1768" x2="1931" y1="73.5938" y2="73.5938"/><text fill="#000000" font-family="sans-serif" font-size="14" font-weight="bold" lengthAdjust="spacing" textLength="150" x="1772" y="66.292">Presentation Layer</text></g><!--cluster Application Layer--><g id="cluster_Application Layer"><path d="M882.5,43.2969 L1019.5,43.2969 A3.75,3.75 0 0 1 1022,45.7969 L1029,65.5938 L1741.5,65.5938 A2.5,2.5 0 0 1 1744,68.0938 L1744,415.7969 A2.5,2.5 0 0 1 1741.5,418.2969 L882.5,418.2969 A2.5,2.5 0 0 1 880,415.7969 L880,45.7969 A2.5,2.5 0 0 1 882.5,43.2969 " fill="none" style="stroke:#000000;stroke-width:1.5;"/><line style="stroke:#000000;stroke-width:1.5;" x1="880" x2="1029" y1="65.5938" y2="65.5938"/><text fill="#000000" font-family="sans-serif" font-size="14" font-weight="bold" lengthAdjust="spacing" textLength="136" x="884" y="58.292">Application Layer</text></g><!--cluster Domain Layer--><g id="cluster_Domain Layer"><path d="M8.5,467.2969 L116.5,467.2969 A3.75,3.75 0 0 1 119,469.7969 L126,489.5938 L781.5,489.5938 A2.5,2.5 0 0 1 784,492.0938 L784,644.7969 A2.5,2.5 0 0 1 781.5,647.2969 L8.5,647.2969 A2.5,2.5 0 0 1 6,644.7969 L6,469.7969 A2.5,2.5 0 0 1 8.5,467.2969 " fill="none" style="stroke:#000000;stroke-width:1.5;"/><line style="stroke:#000000;stroke-width:1.5;" x1="6" x2="126" y1="489.5938" y2="489.5938"/><text fill="#000000" font-family="sans-serif" font-size="14" font-weight="bold" lengthAdjust="spacing" textLength="107" x="10" y="482.292">Domain Layer</text></g><!--cluster Infrastructure Layer--><g id="cluster_Infrastructure Layer"><path d="M552.5,270.2969 L712.5,270.2969 A3.75,3.75 0 0 1 715,272.7969 L722,292.5938 L853.5,292.5938 A2.5,2.5 0 0 1 856,295.0938 L856,415.7969 A2.5,2.5 0 0 1 853.5,418.2969 L552.5,418.2969 A2.5,2.5 0 0 1 550,415.7969 L550,272.7969 A2.5,2.5 0 0 1 552.5,270.2969 " fill="none" style="stroke:#000000;stroke-width:1.5;"/><line style="stroke:#000000;stroke-width:1.5;" x1="550" x2="722" y1="292.5938" y2="292.5938"/><text fill="#000000" font-family="sans-serif" font-size="14" font-weight="bold" lengthAdjust="spacing" textLength="159" x="554" y="285.292">Infrastructure Layer</text></g><!--class AdminController--><g id="elem_AdminController"><rect codeLine="5" fill="#F1F1F1" height="113.1875" id="AdminController" rx="2.5" ry="2.5" style="stroke:#181818;stroke-width:0.5;" width="519" x="1784.5" y="86.2969"/><ellipse cx="1984.75" cy="102.2969" fill="#ADD1B2" rx="11" ry="11" style="stroke:#181818;stroke-width:1.0;"/><path d="M1987.7188,107.9375 Q1987.1406,108.2344 1986.5,108.375 Q1985.8594,108.5313 1985.1563,108.5313 Q1982.6563,108.5313 1981.3281,106.8906 Q1980.0156,105.2344 1980.0156,102.1094 Q1980.0156,98.9844 1981.3281,97.3281 Q1982.6563,95.6719 1985.1563,95.6719 Q1985.8594,95.6719 1986.5,95.8281 Q1987.1563,95.9844 1987.7188,96.2813 L1987.7188,99 Q1987.0938,98.4219 1986.5,98.1563 Q1985.9063,97.875 1985.2813,97.875 Q1983.9375,97.875 1983.25,98.9531 Q1982.5625,100.0156 1982.5625,102.1094 Q1982.5625,104.2031 1983.25,105.2813 Q1983.9375,106.3438 1985.2813,106.3438 Q1985.9063,106.3438 1986.5,106.0781 Q1987.0938,105.7969 1987.7188,105.2188 L1987.7188,107.9375 Z " fill="#000000"/><text fill="#000000" font-family="sans-serif" font-size="14" lengthAdjust="spacing" textLength="110" x="2005.25" y="107.1436">AdminController</text><line style="stroke:#181818;stroke-width:0.5;" x1="1785.5" x2="2302.5" y1="118.2969" y2="118.2969"/><rect fill="none" height="6" style="stroke:#C82930;stroke-width:1.0;" width="6" x="1792.5" y="128.9453"/><text fill="#000000" font-family="sans-serif" font-size="14" lengthAdjust="spacing" textLength="199" x="1804.5" y="135.292">IAdminService _adminService</text><line style="stroke:#181818;stroke-width:0.5;" x1="1785.5" x2="2302.5" y1="142.5938" y2="142.5938"/><ellipse cx="1795.5" cy="156.2422" fill="#84BE84" rx="3" ry="3" style="stroke:#038048;stroke-width:1.0;"/><text fill="#000000" font-family="sans-serif" font-size="14" lengthAdjust="spacing" textLength="493" x="1804.5" y="159.5889">GetLogs(userId, actionType, startTime, endTime): Task&lt;IActionResult&gt;</text><ellipse cx="1795.5" cy="172.5391" fill="#84BE84" rx="3" ry="3" style="stroke:#038048;stroke-width:1.0;"/><text fill="#000000" font-family="sans-serif" font-size="14" lengthAdjust="spacing" textLength="298" x="1804.5" y="175.8857">GetUsersPerMonth(): Task&lt;IActionResult&gt;</text><ellipse cx="1795.5" cy="188.8359" fill="#84BE84" rx="3" ry="3" style="stroke:#038048;stroke-width:1.0;"/><text fill="#000000" font-family="sans-serif" font-size="14" lengthAdjust="spacing" textLength="296" x="1804.5" y="192.1826">GetItemsPerMonth(): Task&lt;IActionResult&gt;</text></g><!--class IAdminService--><g id="elem_IAdminService"><rect codeLine="14" fill="#F1F1F1" height="96.8906" id="IAdminService" rx="2.5" ry="2.5" style="stroke:#181818;stroke-width:0.5;" width="831" x="896.5" y="305.2969"/><ellipse cx="1258.25" cy="321.2969" fill="#B4A7E5" rx="11" ry="11" style="stroke:#181818;stroke-width:1.0;"/><path d="M1254.1719,317.0625 L1254.1719,314.9063 L1261.5625,314.9063 L1261.5625,317.0625 L1259.0938,317.0625 L1259.0938,325.1406 L1261.5625,325.1406 L1261.5625,327.2969 L1254.1719,327.2969 L1254.1719,325.1406 L1256.6406,325.1406 L1256.6406,317.0625 L1254.1719,317.0625 Z " fill="#000000"/><text fill="#000000" font-family="sans-serif" font-size="14" font-style="italic" lengthAdjust="spacing" textLength="99" x="1278.75" y="326.1436">IAdminService</text><line style="stroke:#181818;stroke-width:0.5;" x1="897.5" x2="1726.5" y1="337.2969" y2="337.2969"/><line style="stroke:#181818;stroke-width:0.5;" x1="897.5" x2="1726.5" y1="345.2969" y2="345.2969"/><ellipse cx="907.5" cy="358.9453" fill="#84BE84" rx="3" ry="3" style="stroke:#038048;stroke-width:1.0;"/><text fill="#000000" font-family="sans-serif" font-size="14" lengthAdjust="spacing" textLength="805" x="916.5" y="362.292">GetSystemLogsAsync(userId, actionType, startTime, endTime): Task&lt;ServiceResult&lt;IEnumerable&lt;StatsReport&gt;&gt;&gt;</text><ellipse cx="907.5" cy="375.2422" fill="#84BE84" rx="3" ry="3" style="stroke:#038048;stroke-width:1.0;"/><text fill="#000000" font-family="sans-serif" font-size="14" lengthAdjust="spacing" textLength="603" x="916.5" y="378.5889">GetUserRegistrationsPerMonthAsync(): Task&lt;ServiceResult&lt;IEnumerable&lt;object&gt;&gt;&gt;</text><ellipse cx="907.5" cy="391.5391" fill="#84BE84" rx="3" ry="3" style="stroke:#038048;stroke-width:1.0;"/><text fill="#000000" font-family="sans-serif" font-size="14" lengthAdjust="spacing" textLength="576" x="916.5" y="394.8857">GetItemCreationsPerMonthAsync(): Task&lt;ServiceResult&lt;IEnumerable&lt;object&gt;&gt;&gt;</text></g><!--class AdminService--><g id="elem_AdminService"><rect codeLine="20" fill="#F1F1F1" height="129.4844" id="AdminService" rx="2.5" ry="2.5" style="stroke:#181818;stroke-width:0.5;" width="629" x="896.5" y="78.2969"/><ellipse cx="1160.25" cy="94.2969" fill="#ADD1B2" rx="11" ry="11" style="stroke:#181818;stroke-width:1.0;"/><path d="M1163.2188,99.9375 Q1162.6406,100.2344 1162,100.375 Q1161.3594,100.5313 1160.6563,100.5313 Q1158.1563,100.5313 1156.8281,98.8906 Q1155.5156,97.2344 1155.5156,94.1094 Q1155.5156,90.9844 1156.8281,89.3281 Q1158.1563,87.6719 1160.6563,87.6719 Q1161.3594,87.6719 1162,87.8281 Q1162.6563,87.9844 1163.2188,88.2813 L1163.2188,91 Q1162.5938,90.4219 1162,90.1563 Q1161.4063,89.875 1160.7813,89.875 Q1159.4375,89.875 1158.75,90.9531 Q1158.0625,92.0156 1158.0625,94.1094 Q1158.0625,96.2031 1158.75,97.2813 Q1159.4375,98.3438 1160.7813,98.3438 Q1161.4063,98.3438 1162,98.0781 Q1162.5938,97.7969 1163.2188,97.2188 L1163.2188,99.9375 Z " fill="#000000"/><text fill="#000000" font-family="sans-serif" font-size="14" lengthAdjust="spacing" textLength="93" x="1180.75" y="99.1436">AdminService</text><line style="stroke:#181818;stroke-width:0.5;" x1="897.5" x2="1524.5" y1="110.2969" y2="110.2969"/><rect fill="none" height="6" style="stroke:#C82930;stroke-width:1.0;" width="6" x="904.5" y="120.9453"/><text fill="#000000" font-family="sans-serif" font-size="14" lengthAdjust="spacing" textLength="213" x="916.5" y="127.292">ApplicationDBContext _context</text><rect fill="none" height="6" style="stroke:#C82930;stroke-width:1.0;" width="6" x="904.5" y="137.2422"/><text fill="#000000" font-family="sans-serif" font-size="14" lengthAdjust="spacing" textLength="223" x="916.5" y="143.5889">ILogger&lt;AdminService&gt; _logger</text><line style="stroke:#181818;stroke-width:0.5;" x1="897.5" x2="1524.5" y1="150.8906" y2="150.8906"/><ellipse cx="907.5" cy="164.5391" fill="#84BE84" rx="3" ry="3" style="stroke:#038048;stroke-width:1.0;"/><text fill="#000000" font-family="sans-serif" font-size="14" lengthAdjust="spacing" textLength="548" x="916.5" y="167.8857">GetSystemLogsAsync(...): Task&lt;ServiceResult&lt;IEnumerable&lt;StatsReport&gt;&gt;&gt;</text><ellipse cx="907.5" cy="180.8359" fill="#84BE84" rx="3" ry="3" style="stroke:#038048;stroke-width:1.0;"/><text fill="#000000" font-family="sans-serif" font-size="14" lengthAdjust="spacing" textLength="603" x="916.5" y="184.1826">GetUserRegistrationsPerMonthAsync(): Task&lt;ServiceResult&lt;IEnumerable&lt;object&gt;&gt;&gt;</text><ellipse cx="907.5" cy="197.1328" fill="#84BE84" rx="3" ry="3" style="stroke:#038048;stroke-width:1.0;"/><text fill="#000000" font-family="sans-serif" font-size="14" lengthAdjust="spacing" textLength="576" x="916.5" y="200.4795">GetItemCreationsPerMonthAsync(): Task&lt;ServiceResult&lt;IEnumerable&lt;object&gt;&gt;&gt;</text></g><!--class StatsReport--><g id="elem_StatsReport"><rect codeLine="30" fill="#F1F1F1" height="129.4844" id="StatsReport" rx="2.5" ry="2.5" style="stroke:#181818;stroke-width:0.5;" width="189" x="372.5" y="502.2969"/><ellipse cx="421.75" cy="518.2969" fill="#ADD1B2" rx="11" ry="11" style="stroke:#181818;stroke-width:1.0;"/><path d="M424.7188,523.9375 Q424.1406,524.2344 423.5,524.375 Q422.8594,524.5313 422.1563,524.5313 Q419.6563,524.5313 418.3281,522.8906 Q417.0156,521.2344 417.0156,518.1094 Q417.0156,514.9844 418.3281,513.3281 Q419.6563,511.6719 422.1563,511.6719 Q422.8594,511.6719 423.5,511.8281 Q424.1563,511.9844 424.7188,512.2813 L424.7188,515 Q424.0938,514.4219 423.5,514.1563 Q422.9063,513.875 422.2813,513.875 Q420.9375,513.875 420.25,514.9531 Q419.5625,516.0156 419.5625,518.1094 Q419.5625,520.2031 420.25,521.2813 Q420.9375,522.3438 422.2813,522.3438 Q422.9063,522.3438 423.5,522.0781 Q424.0938,521.7969 424.7188,521.2188 L424.7188,523.9375 Z " fill="#000000"/><text fill="#000000" font-family="sans-serif" font-size="14" lengthAdjust="spacing" textLength="82" x="442.25" y="523.1436">StatsReport</text><line style="stroke:#181818;stroke-width:0.5;" x1="373.5" x2="560.5" y1="534.2969" y2="534.2969"/><ellipse cx="383.5" cy="547.9453" fill="none" rx="3" ry="3" style="stroke:#038048;stroke-width:1.0;"/><text fill="#000000" font-family="sans-serif" font-size="14" lengthAdjust="spacing" textLength="38" x="392.5" y="551.292">Id: int</text><ellipse cx="383.5" cy="564.2422" fill="none" rx="3" ry="3" style="stroke:#038048;stroke-width:1.0;"/><text fill="#000000" font-family="sans-serif" font-size="14" lengthAdjust="spacing" textLength="70" x="392.5" y="567.5889">UserId: int</text><ellipse cx="383.5" cy="580.5391" fill="none" rx="3" ry="3" style="stroke:#038048;stroke-width:1.0;"/><text fill="#000000" font-family="sans-serif" font-size="14" lengthAdjust="spacing" textLength="75" x="392.5" y="583.8857">ItemId: int?</text><ellipse cx="383.5" cy="596.8359" fill="none" rx="3" ry="3" style="stroke:#038048;stroke-width:1.0;"/><text fill="#000000" font-family="sans-serif" font-size="14" lengthAdjust="spacing" textLength="163" x="392.5" y="600.1826">ActionType: ActionType</text><ellipse cx="383.5" cy="613.1328" fill="none" rx="3" ry="3" style="stroke:#038048;stroke-width:1.0;"/><text fill="#000000" font-family="sans-serif" font-size="14" lengthAdjust="spacing" textLength="153" x="392.5" y="616.4795">Timestamp: DateTime</text><line style="stroke:#181818;stroke-width:0.5;" x1="373.5" x2="560.5" y1="623.7813" y2="623.7813"/></g><!--class User--><g id="elem_User"><rect codeLine="38" fill="#F1F1F1" height="80.5938" id="User" rx="2.5" ry="2.5" style="stroke:#181818;stroke-width:0.5;" width="171" x="166.5" y="526.2969"/><ellipse cx="231.75" cy="542.2969" fill="#ADD1B2" rx="11" ry="11" style="stroke:#181818;stroke-width:1.0;"/><path d="M234.7188,547.9375 Q234.1406,548.2344 233.5,548.375 Q232.8594,548.5313 232.1563,548.5313 Q229.6563,548.5313 228.3281,546.8906 Q227.0156,545.2344 227.0156,542.1094 Q227.0156,538.9844 228.3281,537.3281 Q229.6563,535.6719 232.1563,535.6719 Q232.8594,535.6719 233.5,535.8281 Q234.1563,535.9844 234.7188,536.2813 L234.7188,539 Q234.0938,538.4219 233.5,538.1563 Q232.9063,537.875 232.2813,537.875 Q230.9375,537.875 230.25,538.9531 Q229.5625,540.0156 229.5625,542.1094 Q229.5625,544.2031 230.25,545.2813 Q230.9375,546.3438 232.2813,546.3438 Q232.9063,546.3438 233.5,546.0781 Q234.0938,545.7969 234.7188,545.2188 L234.7188,547.9375 Z " fill="#000000"/><text fill="#000000" font-family="sans-serif" font-size="14" lengthAdjust="spacing" textLength="32" x="252.25" y="547.1436">User</text><line style="stroke:#181818;stroke-width:0.5;" x1="167.5" x2="336.5" y1="558.2969" y2="558.2969"/><ellipse cx="177.5" cy="571.9453" fill="none" rx="3" ry="3" style="stroke:#038048;stroke-width:1.0;"/><text fill="#000000" font-family="sans-serif" font-size="14" lengthAdjust="spacing" textLength="38" x="186.5" y="575.292">Id: int</text><ellipse cx="177.5" cy="588.2422" fill="none" rx="3" ry="3" style="stroke:#038048;stroke-width:1.0;"/><text fill="#000000" font-family="sans-serif" font-size="14" lengthAdjust="spacing" textLength="145" x="186.5" y="591.5889">CreatedAt: DateTime</text><line style="stroke:#181818;stroke-width:0.5;" x1="167.5" x2="336.5" y1="598.8906" y2="598.8906"/></g><!--class Item--><g id="elem_Item"><rect codeLine="44" fill="#F1F1F1" height="80.5938" id="Item" rx="2.5" ry="2.5" style="stroke:#181818;stroke-width:0.5;" width="171" x="596.5" y="526.2969"/><ellipse cx="662.75" cy="542.2969" fill="#ADD1B2" rx="11" ry="11" style="stroke:#181818;stroke-width:1.0;"/><path d="M665.7188,547.9375 Q665.1406,548.2344 664.5,548.375 Q663.8594,548.5313 663.1563,548.5313 Q660.6563,548.5313 659.3281,546.8906 Q658.0156,545.2344 658.0156,542.1094 Q658.0156,538.9844 659.3281,537.3281 Q660.6563,535.6719 663.1563,535.6719 Q663.8594,535.6719 664.5,535.8281 Q665.1563,535.9844 665.7188,536.2813 L665.7188,539 Q665.0938,538.4219 664.5,538.1563 Q663.9063,537.875 663.2813,537.875 Q661.9375,537.875 661.25,538.9531 Q660.5625,540.0156 660.5625,542.1094 Q660.5625,544.2031 661.25,545.2813 Q661.9375,546.3438 663.2813,546.3438 Q663.9063,546.3438 664.5,546.0781 Q665.0938,545.7969 665.7188,545.2188 L665.7188,547.9375 Z " fill="#000000"/><text fill="#000000" font-family="sans-serif" font-size="14" lengthAdjust="spacing" textLength="30" x="683.25" y="547.1436">Item</text><line style="stroke:#181818;stroke-width:0.5;" x1="597.5" x2="766.5" y1="558.2969" y2="558.2969"/><ellipse cx="607.5" cy="571.9453" fill="none" rx="3" ry="3" style="stroke:#038048;stroke-width:1.0;"/><text fill="#000000" font-family="sans-serif" font-size="14" lengthAdjust="spacing" textLength="38" x="616.5" y="575.292">Id: int</text><ellipse cx="607.5" cy="588.2422" fill="none" rx="3" ry="3" style="stroke:#038048;stroke-width:1.0;"/><text fill="#000000" font-family="sans-serif" font-size="14" lengthAdjust="spacing" textLength="145" x="616.5" y="591.5889">CreatedAt: DateTime</text><line style="stroke:#181818;stroke-width:0.5;" x1="597.5" x2="766.5" y1="598.8906" y2="598.8906"/></g><!--class ActionType--><g id="elem_ActionType"><rect codeLine="50" fill="#F1F1F1" height="113.1875" id="ActionType" rx="2.5" ry="2.5" style="stroke:#181818;stroke-width:0.5;" width="109" x="22.5" y="510.2969"/><ellipse cx="37.5" cy="526.2969" fill="#EB937F" rx="11" ry="11" style="stroke:#181818;stroke-width:1.0;"/><path d="M41.6094,532.2969 L33.8906,532.2969 L33.8906,519.9063 L41.6094,519.9063 L41.6094,522.0625 L36.3438,522.0625 L36.3438,524.7344 L41.1094,524.7344 L41.1094,526.8906 L36.3438,526.8906 L36.3438,530.1406 L41.6094,530.1406 L41.6094,532.2969 Z " fill="#000000"/><text fill="#000000" font-family="sans-serif" font-size="14" lengthAdjust="spacing" textLength="77" x="51.5" y="531.1436">ActionType</text><line style="stroke:#181818;stroke-width:0.5;" x1="23.5" x2="130.5" y1="542.2969" y2="542.2969"/><text fill="#000000" font-family="sans-serif" font-size="14" lengthAdjust="spacing" textLength="55" x="28.5" y="559.292">Created</text><text fill="#000000" font-family="sans-serif" font-size="14" lengthAdjust="spacing" textLength="44" x="28.5" y="575.5889">Edited</text><text fill="#000000" font-family="sans-serif" font-size="14" lengthAdjust="spacing" textLength="46" x="28.5" y="591.8857">Moved</text><text fill="#000000" font-family="sans-serif" font-size="14" lengthAdjust="spacing" textLength="55" x="28.5" y="608.1826">Deleted</text><line style="stroke:#181818;stroke-width:0.5;" x1="23.5" x2="130.5" y1="615.4844" y2="615.4844"/></g><!--class ApplicationDBContext--><g id="elem_ApplicationDBContext"><rect codeLine="59" fill="#F1F1F1" height="96.8906" id="ApplicationDBContext" rx="2.5" ry="2.5" style="stroke:#181818;stroke-width:0.5;" width="274" x="566" y="305.2969"/><ellipse cx="623.75" cy="321.2969" fill="#ADD1B2" rx="11" ry="11" style="stroke:#181818;stroke-width:1.0;"/><path d="M626.7188,326.9375 Q626.1406,327.2344 625.5,327.375 Q624.8594,327.5313 624.1563,327.5313 Q621.6563,327.5313 620.3281,325.8906 Q619.0156,324.2344 619.0156,321.1094 Q619.0156,317.9844 620.3281,316.3281 Q621.6563,314.6719 624.1563,314.6719 Q624.8594,314.6719 625.5,314.8281 Q626.1563,314.9844 626.7188,315.2813 L626.7188,318 Q626.0938,317.4219 625.5,317.1563 Q624.9063,316.875 624.2813,316.875 Q622.9375,316.875 622.25,317.9531 Q621.5625,319.0156 621.5625,321.1094 Q621.5625,323.2031 622.25,324.2813 Q622.9375,325.3438 624.2813,325.3438 Q624.9063,325.3438 625.5,325.0781 Q626.0938,324.7969 626.7188,324.2188 L626.7188,326.9375 Z " fill="#000000"/><text fill="#000000" font-family="sans-serif" font-size="14" lengthAdjust="spacing" textLength="150" x="644.25" y="326.1436">ApplicationDBContext</text><line style="stroke:#181818;stroke-width:0.5;" x1="567" x2="839" y1="337.2969" y2="337.2969"/><ellipse cx="577" cy="350.9453" fill="none" rx="3" ry="3" style="stroke:#038048;stroke-width:1.0;"/><text fill="#000000" font-family="sans-serif" font-size="14" lengthAdjust="spacing" textLength="248" x="586" y="354.292">StatsReports: DbSet&lt;StatsReport&gt;</text><ellipse cx="577" cy="367.2422" fill="none" rx="3" ry="3" style="stroke:#038048;stroke-width:1.0;"/><text fill="#000000" font-family="sans-serif" font-size="14" lengthAdjust="spacing" textLength="148" x="586" y="370.5889">Users: DbSet&lt;User&gt;</text><ellipse cx="577" cy="383.5391" fill="none" rx="3" ry="3" style="stroke:#038048;stroke-width:1.0;"/><text fill="#000000" font-family="sans-serif" font-size="14" lengthAdjust="spacing" textLength="144" x="586" y="386.8857">Items: DbSet&lt;Item&gt;</text><line style="stroke:#181818;stroke-width:0.5;" x1="567" x2="839" y1="394.1875" y2="394.1875"/></g><!--class ILogger--><g id="elem_ILogger"><rect fill="#F1F1F1" height="48" id="ILogger" rx="2.5" ry="2.5" style="stroke:#181818;stroke-width:0.5;" width="83" x="90.5" y="329.7969"/><ellipse cx="105.5" cy="345.7969" fill="#ADD1B2" rx="11" ry="11" style="stroke:#181818;stroke-width:1.0;"/><path d="M108.4688,351.4375 Q107.8906,351.7344 107.25,351.875 Q106.6094,352.0313 105.9063,352.0313 Q103.4063,352.0313 102.0781,350.3906 Q100.7656,348.7344 100.7656,345.6094 Q100.7656,342.4844 102.0781,340.8281 Q103.4063,339.1719 105.9063,339.1719 Q106.6094,339.1719 107.25,339.3281 Q107.9063,339.4844 108.4688,339.7813 L108.4688,342.5 Q107.8438,341.9219 107.25,341.6563 Q106.6563,341.375 106.0313,341.375 Q104.6875,341.375 104,342.4531 Q103.3125,343.5156 103.3125,345.6094 Q103.3125,347.7031 104,348.7813 Q104.6875,349.8438 106.0313,349.8438 Q106.6563,349.8438 107.25,349.5781 Q107.8438,349.2969 108.4688,348.7188 L108.4688,351.4375 Z " fill="#000000"/><text fill="#000000" font-family="sans-serif" font-size="14" lengthAdjust="spacing" textLength="51" x="119.5" y="350.6436">ILogger</text><line style="stroke:#181818;stroke-width:0.5;" x1="91.5" x2="172.5" y1="361.7969" y2="361.7969"/><line style="stroke:#181818;stroke-width:0.5;" x1="91.5" x2="172.5" y1="369.7969" y2="369.7969"/></g><!--link AdminController to IAdminService--><g id="link_AdminController_IAdminService"><path codeLine="67" d="M1849.28,199.3969 C1733.76,232.3769 1594.6195,272.1099 1484.4095,303.5699 " fill="none" id="AdminController-to-IAdminService" style="stroke:#181818;stroke-width:1.0;stroke-dasharray:7.0,7.0;"/><polygon fill="#181818" points="1478.64,305.2169,1488.3923,306.5928,1483.4479,303.8444,1486.1963,298.9001,1478.64,305.2169" style="stroke:#181818;stroke-width:1.0;"/><text fill="#000000" font-family="sans-serif" font-size="13" lengthAdjust="spacing" textLength="30" x="1700" y="250.3638">uses</text></g><!--link AdminService to IAdminService--><g id="link_AdminService_IAdminService"><path codeLine="69" d="M1241.71,207.3569 C1256.92,238.8169 1267.1379,259.9601 1281.1379,288.9301 " fill="none" id="AdminService-to-IAdminService" style="stroke:#181818;stroke-width:1.0;stroke-dasharray:7.0,7.0;"/><polygon fill="none" points="1288.97,305.1369,1286.5402,286.3194,1275.7357,291.5408,1288.97,305.1369" style="stroke:#181818;stroke-width:1.0;"/><text fill="#000000" font-family="sans-serif" font-size="13" lengthAdjust="spacing" textLength="76" x="1262" y="250.3638">implements</text></g><!--link AdminService to ApplicationDBContext--><g id="link_AdminService_ApplicationDBContext"><path codeLine="70" d="M1020.32,207.3269 C973.95,224.0669 924.82,242.9169 880,262.2969 C850.38,275.1069 824.1221,287.8857 795.9421,302.4257 " fill="none" id="AdminService-to-ApplicationDBContext" style="stroke:#181818;stroke-width:1.0;stroke-dasharray:7.0,7.0;"/><polygon fill="#181818" points="790.61,305.1769,800.4422,304.6048,795.0534,302.8842,796.774,297.4954,790.61,305.1769" style="stroke:#181818;stroke-width:1.0;"/><text fill="#000000" font-family="sans-serif" font-size="13" lengthAdjust="spacing" textLength="30" x="934" y="250.3638">uses</text></g><!--link AdminService to ILogger--><g id="link_AdminService_ILogger"><path codeLine="71" d="M896.44,156.7969 C616.8,170.8969 243.47,196.9469 186,237.2969 C155.2,258.9269 142.7468,296.8878 137.0068,323.9078 " fill="none" id="AdminService-to-ILogger" style="stroke:#181818;stroke-width:1.0;stroke-dasharray:7.0,7.0;"/><polygon fill="#181818" points="135.76,329.7769,141.5429,321.8045,136.799,324.886,133.7175,320.1421,135.76,329.7769" style="stroke:#181818;stroke-width:1.0;"/><text fill="#000000" font-family="sans-serif" font-size="13" lengthAdjust="spacing" textLength="30" x="187" y="250.3638">uses</text></g><!--link AdminService to StatsReport--><g id="link_AdminService_StatsReport"><path codeLine="73" d="M896.25,150.2169 C700.91,161.5169 475.25,190.3769 411,262.2969 C354.51,325.5269 359.07,370.5669 385,451.2969 C390.72,469.1069 396.9528,481.5444 407.6428,497.1744 " fill="none" id="AdminService-to-StatsReport" style="stroke:#181818;stroke-width:1.0;stroke-dasharray:7.0,7.0;"/><polygon fill="#181818" points="411.03,502.1269,409.2509,492.44,408.2073,497.9998,402.6476,496.9563,411.03,502.1269" style="stroke:#181818;stroke-width:1.0;"/><text fill="#000000" font-family="sans-serif" font-size="13" lengthAdjust="spacing" textLength="47" x="412" y="358.3638">queries</text></g><!--link AdminService to User--><g id="link_AdminService_User"><path codeLine="74" d="M896.38,165.7769 C652.65,185.9669 349.74,219.2669 309,262.2969 C240.54,334.6169 240.8971,455.7897 246.5271,520.1397 " fill="none" id="AdminService-to-User" style="stroke:#181818;stroke-width:1.0;stroke-dasharray:7.0,7.0;"/><polygon fill="#181818" points="247.05,526.1169,250.2504,516.8025,246.6142,521.1359,242.2808,517.4998,247.05,526.1169" style="stroke:#181818;stroke-width:1.0;"/><text fill="#000000" font-family="sans-serif" font-size="13" lengthAdjust="spacing" textLength="47" x="310" y="358.3638">queries</text></g><!--link AdminService to Item--><g id="link_AdminService_Item"><path codeLine="75" d="M896.21,157.1469 C731.23,171.4669 552.84,201.0869 501,262.2969 C453.89,317.9169 460.73,365.5369 501,426.2969 C521.79,457.6769 547.96,438.0069 579,459.2969 C606.05,477.8469 627.7772,499.7969 646.7172,521.7169 " fill="none" id="AdminService-to-Item" style="stroke:#181818;stroke-width:1.0;stroke-dasharray:7.0,7.0;"/><polygon fill="#181818" points="650.64,526.2569,647.7825,516.8317,647.371,522.4735,641.7291,522.0621,650.64,526.2569" style="stroke:#181818;stroke-width:1.0;"/><text fill="#000000" font-family="sans-serif" font-size="13" lengthAdjust="spacing" textLength="47" x="502" y="358.3638">queries</text></g><!--link ApplicationDBContext to StatsReport--><g id="link_ApplicationDBContext_StatsReport"><path codeLine="77" d="M644.97,402.4769 C623.95,420.0669 600.18,440.3269 579,459.2969 C563.81,472.8969 556.4739,479.5665 541.4339,493.8065 " fill="none" id="ApplicationDBContext-to-StatsReport" style="stroke:#181818;stroke-width:1.0;"/><polygon fill="none" points="532.72,502.0569,539.8271,500.8363,541.4339,493.8065,534.3268,495.0271,532.72,502.0569" style="stroke:#181818;stroke-width:1.0;"/><text fill="#000000" font-family="sans-serif" font-size="13" lengthAdjust="spacing" textLength="60" x="606" y="447.3638">manages</text></g><!--link ApplicationDBContext to User--><g id="link_ApplicationDBContext_User"><path codeLine="78" d="M603.79,402.4569 C582.74,411.3169 560.4,419.8069 539,426.2969 C459.49,450.3969 428.32,420.2169 355,459.2969 C325.04,475.2669 306.0937,493.7224 287.5037,516.9224 " fill="none" id="ApplicationDBContext-to-User" style="stroke:#181818;stroke-width:1.0;"/><polygon fill="none" points="280,526.2869,286.8734,524.1059,287.5037,516.9224,280.6304,519.1034,280,526.2869" style="stroke:#181818;stroke-width:1.0;"/><text fill="#000000" font-family="sans-serif" font-size="13" lengthAdjust="spacing" textLength="60" x="501" y="447.3638">manages</text></g><!--link ApplicationDBContext to Item--><g id="link_ApplicationDBContext_Item"><path codeLine="79" d="M698.26,402.4169 C694.55,439.7269 690.6273,479.0958 687.1373,514.1958 " fill="none" id="ApplicationDBContext-to-Item" style="stroke:#181818;stroke-width:1.0;"/><polygon fill="none" points="685.95,526.1369,690.524,520.5621,687.1373,514.1958,682.5633,519.7705,685.95,526.1369" style="stroke:#181818;stroke-width:1.0;"/><text fill="#000000" font-family="sans-serif" font-size="13" lengthAdjust="spacing" textLength="60" x="695" y="447.3638">manages</text></g><!--SRC=[vLNDRjf04BxxAKOv5AA2fVPK8UJAWJIoHAe8o1ajzWIsiRtkxZegIdFg2rJgiIUEVGQEH7qFtgIxnd7NFmcfr9xg0-pCZh-P-URRjQGoH9ZyNCFzrztc6unsc-y939QxpGyVtjz_YHTmHhVh2CHsBU45d6pN37pzqtutVcE_we3-UtriMGdnhya2uUY2ey1O4abP32EoGdu4jnQenm-94E064Oq7B9QSXI7oV4y_NV2opGdo6-eZp8XX5L4luGpbY2r4EnN8lQ03nDUvfgi4Eo0auN9A8xN4ED2BunvCYRZkUsuMDaQHXj8fmrqg9761_5oLjMm_vmrFOlIiD-wiEuCSDqb2wZTmGsE9_8gehiiSt9RJJbP29TRTks8L-tz8GGwwBw_ldSPfX9pCG-nFrBp461F6fUCqa3F61HMIPuKNRUzBE0pEvX_Gh-Dg2WSS_mQcehWYi3f_NJ387vve1U8d2JD_lp1LgFXT8E-RG0xCmipxz3nis_uFo3OLFMGHeOq7tMYp96Clw6cv6vxBJCLLhouvzxurt6uXzPwnDWAqujKPY98U38b4RTP5ebCUg2gZ2mDNLd3qqm8rQM1ogL0IpXBaag9erVFe9lvj7bHpCeWmakN0XNqQKDCyPpU6DSGG7tRB4_RYAqwK7bDVfXmRh_IcWsKsRKX1g2xd4vIbKr3HGX6Z3QSYYM9J6uOYMp36SA_l9Ks4LVtEsBPJkLjxeAvFOLabfsr_hiVHA0anKbyrKGrscflFeMl1-TNoM6gdT6Xwy355JfjmCla-iP_9xlU-rLXajyig-I8Igv6BnyFpl0VZylmFSRy0]--></g></svg>