<?xml version="1.0" encoding="us-ascii" standalone="no"?><svg xmlns="http://www.w3.org/2000/svg" xmlns:xlink="http://www.w3.org/1999/xlink" contentStyleType="text/css" height="796px" preserveAspectRatio="none" style="width:1386px;height:796px;background:#FFFFFF;" version="1.1" viewBox="0 0 1386 796" width="1386px" zoomAndPan="magnify"><defs/><g><text fill="#000000" font-family="sans-serif" font-size="14" font-weight="bold" lengthAdjust="spacing" textLength="352" x="518.25" y="27.9951">Lu&#7891;ng L&#7845;y Th&#7889;ng K&#234; S&#7917; D&#7909;ng &#272;&#7891; V&#7853;t (FR5.1)</text><rect fill="#FFFFFF" height="283.1953" style="stroke:#181818;stroke-width:1.0;" width="10" x="335.5" y="149.7266"/><rect fill="#FFFFFF" height="182.7969" style="stroke:#181818;stroke-width:1.0;" width="10" x="671.5" y="220.9922"/><rect fill="#FFFFFF" height="92.3984" style="stroke:#181818;stroke-width:1.0;" width="10" x="1009.5" y="258.125"/><rect fill="#FFFFFF" height="29.1328" style="stroke:#181818;stroke-width:1.0;" width="10" x="1282.5" y="292.2578"/><rect fill="#FFFFFF" height="29.1328" style="stroke:#181818;stroke-width:1.0;" width="10" x="1282.5" y="561.125"/><rect fill="none" height="333.1328" style="stroke:#000000;stroke-width:1.5;" width="1369.5" x="10" y="365.5234"/><line style="stroke:#181818;stroke-width:0.5;stroke-dasharray:5.0,5.0;" x1="42" x2="42" y1="118.5938" y2="715.6563"/><line style="stroke:#181818;stroke-width:0.5;stroke-dasharray:5.0,5.0;" x1="340" x2="340" y1="118.5938" y2="715.6563"/><line style="stroke:#181818;stroke-width:0.5;stroke-dasharray:5.0,5.0;" x1="676" x2="676" y1="118.5938" y2="715.6563"/><line style="stroke:#181818;stroke-width:0.5;stroke-dasharray:5.0,5.0;" x1="1014.5" x2="1014.5" y1="118.5938" y2="715.6563"/><line style="stroke:#181818;stroke-width:0.5;stroke-dasharray:5.0,5.0;" x1="1287.5" x2="1287.5" y1="118.5938" y2="715.6563"/><text fill="#000000" font-family="sans-serif" font-size="14" lengthAdjust="spacing" textLength="39" x="20" y="115.292">Client</text><ellipse cx="42.5" cy="50.7969" fill="#E2E2F0" rx="8" ry="8" style="stroke:#181818;stroke-width:0.5;"/><path d="M42.5,58.7969 L42.5,85.7969 M29.5,66.7969 L55.5,66.7969 M42.5,85.7969 L29.5,100.7969 M42.5,85.7969 L55.5,100.7969 " fill="none" style="stroke:#181818;stroke-width:0.5;"/><text fill="#000000" font-family="sans-serif" font-size="14" lengthAdjust="spacing" textLength="39" x="20" y="727.6514">Client</text><ellipse cx="42.5" cy="739.4531" fill="#E2E2F0" rx="8" ry="8" style="stroke:#181818;stroke-width:0.5;"/><path d="M42.5,747.4531 L42.5,774.4531 M29.5,755.4531 L55.5,755.4531 M42.5,774.4531 L29.5,789.4531 M42.5,774.4531 L55.5,789.4531 " fill="none" style="stroke:#181818;stroke-width:0.5;"/><rect fill="#E2E2F0" height="30.2969" rx="2.5" ry="2.5" style="stroke:#181818;stroke-width:0.5;" width="143" x="269" y="87.2969"/><text fill="#000000" font-family="sans-serif" font-size="14" lengthAdjust="spacing" textLength="129" x="276" y="107.292">StatisticsController</text><rect fill="#E2E2F0" height="30.2969" rx="2.5" ry="2.5" style="stroke:#181818;stroke-width:0.5;" width="143" x="269" y="714.6563"/><text fill="#000000" font-family="sans-serif" font-size="14" lengthAdjust="spacing" textLength="129" x="276" y="734.6514">StatisticsController</text><rect fill="#E2E2F0" height="30.2969" rx="2.5" ry="2.5" style="stroke:#181818;stroke-width:0.5;" width="129" x="612" y="87.2969"/><text fill="#000000" font-family="sans-serif" font-size="14" lengthAdjust="spacing" textLength="115" x="619" y="107.292">IStatisticsService</text><rect fill="#E2E2F0" height="30.2969" rx="2.5" ry="2.5" style="stroke:#181818;stroke-width:0.5;" width="129" x="612" y="714.6563"/><text fill="#000000" font-family="sans-serif" font-size="14" lengthAdjust="spacing" textLength="115" x="619" y="734.6514">IStatisticsService</text><rect fill="#E2E2F0" height="30.2969" rx="2.5" ry="2.5" style="stroke:#181818;stroke-width:0.5;" width="126" x="951.5" y="87.2969"/><text fill="#000000" font-family="sans-serif" font-size="14" lengthAdjust="spacing" textLength="112" x="958.5" y="107.292">StatisticsService</text><rect fill="#E2E2F0" height="30.2969" rx="2.5" ry="2.5" style="stroke:#181818;stroke-width:0.5;" width="126" x="951.5" y="714.6563"/><text fill="#000000" font-family="sans-serif" font-size="14" lengthAdjust="spacing" textLength="112" x="958.5" y="734.6514">StatisticsService</text><rect fill="#E2E2F0" height="30.2969" rx="2.5" ry="2.5" style="stroke:#181818;stroke-width:0.5;" width="164" x="1205.5" y="87.2969"/><text fill="#000000" font-family="sans-serif" font-size="14" lengthAdjust="spacing" textLength="150" x="1212.5" y="107.292">ApplicationDBContext</text><rect fill="#E2E2F0" height="30.2969" rx="2.5" ry="2.5" style="stroke:#181818;stroke-width:0.5;" width="164" x="1205.5" y="714.6563"/><text fill="#000000" font-family="sans-serif" font-size="14" lengthAdjust="spacing" textLength="150" x="1212.5" y="734.6514">ApplicationDBContext</text><rect fill="#FFFFFF" height="283.1953" style="stroke:#181818;stroke-width:1.0;" width="10" x="335.5" y="149.7266"/><rect fill="#FFFFFF" height="182.7969" style="stroke:#181818;stroke-width:1.0;" width="10" x="671.5" y="220.9922"/><rect fill="#FFFFFF" height="92.3984" style="stroke:#181818;stroke-width:1.0;" width="10" x="1009.5" y="258.125"/><rect fill="#FFFFFF" height="29.1328" style="stroke:#181818;stroke-width:1.0;" width="10" x="1282.5" y="292.2578"/><rect fill="#FFFFFF" height="29.1328" style="stroke:#181818;stroke-width:1.0;" width="10" x="1282.5" y="561.125"/><polygon fill="#181818" points="323.5,145.7266,333.5,149.7266,323.5,153.7266,327.5,149.7266" style="stroke:#181818;stroke-width:1.0;"/><line style="stroke:#181818;stroke-width:1.0;" x1="42.5" x2="329.5" y1="149.7266" y2="149.7266"/><text fill="#000000" font-family="sans-serif" font-size="13" lengthAdjust="spacing" textLength="274" x="49.5" y="144.6606">GET /api/statistics/usage-stats (timeframe)</text><line style="stroke:#181818;stroke-width:1.0;" x1="345.5" x2="387.5" y1="178.8594" y2="178.8594"/><line style="stroke:#181818;stroke-width:1.0;" x1="387.5" x2="387.5" y1="178.8594" y2="191.8594"/><line style="stroke:#181818;stroke-width:1.0;" x1="346.5" x2="387.5" y1="191.8594" y2="191.8594"/><polygon fill="#181818" points="356.5,187.8594,346.5,191.8594,356.5,195.8594,352.5,191.8594" style="stroke:#181818;stroke-width:1.0;"/><text fill="#000000" font-family="sans-serif" font-size="13" lengthAdjust="spacing" textLength="173" x="352.5" y="173.7935">L&#7845;y userId t&#7915; Access Token</text><polygon fill="#181818" points="659.5,216.9922,669.5,220.9922,659.5,224.9922,663.5,220.9922" style="stroke:#181818;stroke-width:1.0;"/><line style="stroke:#181818;stroke-width:1.0;" x1="345.5" x2="665.5" y1="220.9922" y2="220.9922"/><text fill="#000000" font-family="sans-serif" font-size="13" lengthAdjust="spacing" textLength="289" x="352.5" y="215.9263">GetItemUsageStatsAsync(timeframe, userId)</text><line style="stroke:#181818;stroke-width:1.0;" x1="1014.5" x2="1061.5" y1="245.125" y2="245.125"/><line style="stroke:#181818;stroke-width:1.0;" x1="1061.5" x2="1061.5" y1="245.125" y2="258.125"/><line style="stroke:#181818;stroke-width:1.0;" x1="1020.5" x2="1061.5" y1="258.125" y2="258.125"/><polygon fill="#181818" points="1030.5,254.125,1020.5,258.125,1030.5,262.125,1026.5,258.125" style="stroke:#181818;stroke-width:1.0;"/><text fill="#000000" font-family="sans-serif" font-size="13" lengthAdjust="spacing" textLength="176" x="1026.5" y="240.0591">CheckPremiumUser(userId)</text><polygon fill="#181818" points="1270.5,288.2578,1280.5,292.2578,1270.5,296.2578,1274.5,292.2578" style="stroke:#181818;stroke-width:1.0;"/><line style="stroke:#181818;stroke-width:1.0;" x1="1019.5" x2="1276.5" y1="292.2578" y2="292.2578"/><text fill="#000000" font-family="sans-serif" font-size="13" lengthAdjust="spacing" textLength="79" x="1026.5" y="287.1919">Query Users</text><polygon fill="#181818" points="1030.5,317.3906,1020.5,321.3906,1030.5,325.3906,1026.5,321.3906" style="stroke:#181818;stroke-width:1.0;"/><line style="stroke:#181818;stroke-width:1.0;stroke-dasharray:2.0,2.0;" x1="1024.5" x2="1286.5" y1="321.3906" y2="321.3906"/><text fill="#000000" font-family="sans-serif" font-size="13" lengthAdjust="spacing" textLength="28" x="1036.5" y="316.3247">user</text><polygon fill="#181818" points="692.5,346.5234,682.5,350.5234,692.5,354.5234,688.5,350.5234" style="stroke:#181818;stroke-width:1.0;"/><line style="stroke:#181818;stroke-width:1.0;stroke-dasharray:2.0,2.0;" x1="686.5" x2="1013.5" y1="350.5234" y2="350.5234"/><text fill="#000000" font-family="sans-serif" font-size="13" lengthAdjust="spacing" textLength="304" x="698.5" y="345.4575">ServiceResult&lt;bool&gt; (IsSuccess/ErrorMessage)</text><path d="M10,365.5234 L74,365.5234 L74,372.6563 L64,382.6563 L10,382.6563 L10,365.5234 " fill="#EEEEEE" style="stroke:#000000;stroke-width:1.5;"/><rect fill="none" height="333.1328" style="stroke:#000000;stroke-width:1.5;" width="1369.5" x="10" y="365.5234"/><text fill="#000000" font-family="sans-serif" font-size="13" font-weight="bold" lengthAdjust="spacing" textLength="19" x="25" y="378.5903">alt</text><text fill="#000000" font-family="sans-serif" font-size="11" font-weight="bold" lengthAdjust="spacing" textLength="260" x="89" y="377.7339">[Ng&#432;&#7901;i d&#249;ng kh&#244;ng ph&#7843;i Premium/Admin]</text><polygon fill="#181818" points="356.5,399.7891,346.5,403.7891,356.5,407.7891,352.5,403.7891" style="stroke:#181818;stroke-width:1.0;"/><line style="stroke:#181818;stroke-width:1.0;stroke-dasharray:2.0,2.0;" x1="350.5" x2="675.5" y1="403.7891" y2="403.7891"/><text fill="#000000" font-family="sans-serif" font-size="13" lengthAdjust="spacing" textLength="302" x="362.5" y="398.7231">Failure("T&#237;nh n&#259;ng n&#224;y ch&#7881; d&#224;nh cho Premium.")</text><polygon fill="#181818" points="53.5,428.9219,43.5,432.9219,53.5,436.9219,49.5,432.9219" style="stroke:#181818;stroke-width:1.0;"/><line style="stroke:#181818;stroke-width:1.0;stroke-dasharray:2.0,2.0;" x1="47.5" x2="339.5" y1="432.9219" y2="432.9219"/><text fill="#000000" font-family="sans-serif" font-size="13" lengthAdjust="spacing" textLength="91" x="59.5" y="427.856">403 Forbidden</text><line style="stroke:#000000;stroke-width:1.0;stroke-dasharray:2.0,2.0;" x1="10" x2="1379.5" y1="441.9219" y2="441.9219"/><text fill="#000000" font-family="sans-serif" font-size="11" font-weight="bold" lengthAdjust="spacing" textLength="185" x="15" y="452.1323">[Ng&#432;&#7901;i d&#249;ng Premium/Admin]</text><line style="stroke:#181818;stroke-width:1.0;" x1="1014.5" x2="1056.5" y1="476.8594" y2="476.8594"/><line style="stroke:#181818;stroke-width:1.0;" x1="1056.5" x2="1056.5" y1="476.8594" y2="489.8594"/><line style="stroke:#181818;stroke-width:1.0;" x1="1015.5" x2="1056.5" y1="489.8594" y2="489.8594"/><polygon fill="#181818" points="1025.5,485.8594,1015.5,489.8594,1025.5,493.8594,1021.5,489.8594" style="stroke:#181818;stroke-width:1.0;"/><text fill="#000000" font-family="sans-serif" font-size="13" lengthAdjust="spacing" textLength="163" x="1021.5" y="471.7935">GetStartDate(timeframe)</text><line style="stroke:#181818;stroke-width:1.0;stroke-dasharray:2.0,2.0;" x1="1014.5" x2="1056.5" y1="518.9922" y2="518.9922"/><line style="stroke:#181818;stroke-width:1.0;stroke-dasharray:2.0,2.0;" x1="1056.5" x2="1056.5" y1="518.9922" y2="531.9922"/><line style="stroke:#181818;stroke-width:1.0;stroke-dasharray:2.0,2.0;" x1="1015.5" x2="1056.5" y1="531.9922" y2="531.9922"/><polygon fill="#181818" points="1025.5,527.9922,1015.5,531.9922,1025.5,535.9922,1021.5,531.9922" style="stroke:#181818;stroke-width:1.0;"/><text fill="#000000" font-family="sans-serif" font-size="13" lengthAdjust="spacing" textLength="61" x="1021.5" y="513.9263">startDate</text><polygon fill="#181818" points="1270.5,557.125,1280.5,561.125,1270.5,565.125,1274.5,561.125" style="stroke:#181818;stroke-width:1.0;"/><line style="stroke:#181818;stroke-width:1.0;" x1="1014.5" x2="1276.5" y1="561.125" y2="561.125"/><text fill="#000000" font-family="sans-serif" font-size="13" lengthAdjust="spacing" textLength="125" x="1021.5" y="556.0591">Query StatsReports</text><polygon fill="#181818" points="1025.5,586.2578,1015.5,590.2578,1025.5,594.2578,1021.5,590.2578" style="stroke:#181818;stroke-width:1.0;"/><line style="stroke:#181818;stroke-width:1.0;stroke-dasharray:2.0,2.0;" x1="1019.5" x2="1286.5" y1="590.2578" y2="590.2578"/><text fill="#000000" font-family="sans-serif" font-size="13" lengthAdjust="spacing" textLength="244" x="1031.5" y="585.1919">actionCounts (grouped by ActionType)</text><line style="stroke:#181818;stroke-width:1.0;" x1="1014.5" x2="1056.5" y1="619.3906" y2="619.3906"/><line style="stroke:#181818;stroke-width:1.0;" x1="1056.5" x2="1056.5" y1="619.3906" y2="632.3906"/><line style="stroke:#181818;stroke-width:1.0;" x1="1015.5" x2="1056.5" y1="632.3906" y2="632.3906"/><polygon fill="#181818" points="1025.5,628.3906,1015.5,632.3906,1025.5,636.3906,1021.5,632.3906" style="stroke:#181818;stroke-width:1.0;"/><text fill="#000000" font-family="sans-serif" font-size="13" lengthAdjust="spacing" textLength="187" x="1021.5" y="614.3247">T&#7841;o UsageStatsResponseDto</text><polygon fill="#181818" points="687.5,657.5234,677.5,661.5234,687.5,665.5234,683.5,661.5234" style="stroke:#181818;stroke-width:1.0;"/><line style="stroke:#181818;stroke-width:1.0;stroke-dasharray:2.0,2.0;" x1="681.5" x2="1013.5" y1="661.5234" y2="661.5234"/><text fill="#000000" font-family="sans-serif" font-size="13" lengthAdjust="spacing" textLength="145" x="693.5" y="656.4575">Success(responseDto)</text><polygon fill="#181818" points="53.5,686.6563,43.5,690.6563,53.5,694.6563,49.5,690.6563" style="stroke:#181818;stroke-width:1.0;"/><line style="stroke:#181818;stroke-width:1.0;stroke-dasharray:2.0,2.0;" x1="47.5" x2="339.5" y1="690.6563" y2="690.6563"/><text fill="#000000" font-family="sans-serif" font-size="13" lengthAdjust="spacing" textLength="220" x="59.5" y="685.5903">200 OK (UsageStatsResponseDto)</text><!--SRC=[bLHDRzf04BtxLunoCb89zEk2gaWKGeMIVe7Rkx6dU8NPjNRNKNtkgRT6FLTALUNI2gc7NegFHFqV_YUT1H98l4R45tjdn- -zdNcpckaOuJGjygzy3AV5_383BohoSrgTB7x2iCXdq2toIrfVVQ4iU5_CPnhStk3fuSEQu_Y15X8wCKEkdSINcWKiyRc6eVOrKxHK7S6r576CybP2VvCnH7d60gputxRRJfAO1PGXUFUv8S2Fsd5MCg1-P6LlmOjZ3nf-mXhgPhkHAd-CTHDGu6esnG_IdsBD78oT-Hhj1t5iqMhYLM5JXR8VWYxoNz0E0bGAF351NerMhX4T0dLVu_ITqMssLLjbFDX8Vx3csJg2fTHEANHR_GrT9y9WyaRYbAN4YT8jePV1hTYsbhNWROeo0mEiDeZMxjg2KBUBDXgT47S3MbHMb7pzCK2LnlhPI8Zu2Do-6gRB9ZQEfHJo9NrHHshRj9Qo-x66L-D_luly6uDmyPVcQX8j_j0hYOhv3mRhKZVQuPHn1-ZfsuNQdTRpMPnAT0-ynOn7mAy-4JHVN6GGq5X_9ieB2WUHk2OwFAWjMRPaM-nYCkmc9IMhiMl1a-PZw0avOc68_2weTOmmLdYt7EK2x6jLcWoAIjqblkrHhi2mWwXh1AUQUvULboCvm4H8hPO8kqreCkxZR8CcU4UatDnNOodI14COPNIXc0qlIx3KJ_jbUP_AUiNyku3DbKEJa0YkiAl5ZkfQHsarCwxS8EpZl_qC-AZPXDSdu5g5rlPp90__0m00]--></g></svg>